<?xml version="1.0" standalone="no"?>
<!DOCTYPE svg PUBLIC "-//W3C//DTD SVG 20010904//EN"
 "http://www.w3.org/TR/2001/REC-SVG-20010904/DTD/svg10.dtd">
<svg version="1.0" xmlns="http://www.w3.org/2000/svg"
 width="150.000000pt" height="150.000000pt" viewBox="0 0 150.000000 150.000000"
 preserveAspectRatio="xMidYMid meet">
<metadata>
Created by potrace 1.11, written by Peter Selinger 2001-2013
</metadata>
<g transform="translate(0.000000,150.000000) scale(0.100000,-0.100000)"
fill="#000000" stroke="none">
<path d="M610 1374 c-92 -19 -214 -83 -288 -149 -34 -31 -60 -61 -56 -66 3 -5
-1 -9 -8 -9 -27 -1 -107 -165 -123 -255 -9 -48 -11 -176 -3 -225 14 -87 61
-203 90 -221 5 -3 9 -9 8 -13 -2 -10 58 -76 69 -76 5 0 11 -7 15 -15 3 -8 12
-15 21 -15 8 0 15 -4 15 -8 0 -5 16 -14 35 -22 19 -8 35 -17 35 -21 0 -4 10
-9 23 -12 12 -2 52 -16 90 -30 37 -14 67 -23 67 -20 0 3 7 0 15 -7 12 -10 12
-15 1 -33 -8 -12 -17 -35 -20 -51 -7 -27 -6 -28 21 -21 15 4 35 8 43 10 61 13
261 100 268 117 2 4 9 8 15 8 41 0 347 240 347 271 0 10 -33 29 -61 35 -10 2
-29 6 -41 9 -13 3 -36 8 -53 11 -16 2 -46 9 -65 14 -19 5 -44 11 -55 13 -65
10 -187 95 -205 142 -6 16 -11 7 -25 -40 -19 -69 -29 -83 -65 -97 -61 -24
-190 3 -265 56 -30 20 -119 106 -111 106 3 0 -4 19 -14 43 -23 52 -27 118 -10
177 7 25 14 50 15 55 5 23 66 112 97 141 60 56 154 103 236 119 9 2 17 4 17 5
0 1 43 4 96 6 114 4 178 -11 256 -58 93 -56 158 -182 146 -284 -5 -45 -42
-126 -55 -118 -4 3 -17 22 -27 42 l-19 37 -26 -87 c-15 -48 -29 -97 -32 -108
-2 -11 -6 -29 -8 -40 -3 -11 -7 -24 -10 -29 -8 -12 21 -34 34 -26 5 3 10 2 10
-3 0 -10 86 -36 155 -47 22 -3 48 -8 58 -11 15 -5 17 -1 12 33 -5 31 -2 42 18
64 75 79 87 169 41 306 -19 55 -65 143 -76 143 -5 0 -8 5 -8 11 0 32 -154 161
-241 202 -104 48 -279 67 -399 41z"/>
</g>
</svg>
